# xmcd
#
# Track frame offsets:
# 150
# 12595
# 26562
# 45437
# 60377
# 75417
# 90412
# 116100
# 130767
# 142075
# 160675
# 179932
# 197927
# 211665
# 224537
# 238640
# 256875
#
# Disc length: 3646 seconds
#
#
# Revision: 0
# Processed by: cddbd v1.4PL0 Copyright (c) Steve Scherf et al.
# Submitted via: FreeRIP 2.30 
#
DISCID=ed0e3c11
DTITLE=Lyle Lovett - Best Of Lyle Lovett
DYEAR=1900
DGENRE=
TTITLE0=Stand By Your Man
TTITLE1=You Can't Resist It
TTITLE2=Friend Of The Devil
TTITLE3=M-o-n-e-y
TTITLE4=Simple Song
TTITLE5=L.A. County
TTITLE6=North Dakota
TTITLE7=She's No Lady
TTITLE8=Cryin' Shame
TTITLE9=She's Leaving Me Because She Really Wants To
TTITLE10=This Old Porch
TTITLE11=Family Reserve
TTITLE12=Give Back My Heart
TTITLE13=Cowboy Man
TTITLE14=What Do You Do/The Glory Of Love
TTITLE15=Here I Am
TTITLE16=Closing Time
EXTD=
EXTT0=
EXTT1=
EXTT2=
EXTT3=
EXTT4=
EXTT5=
EXTT6=
EXTT7=
EXTT8=
EXTT9=
EXTT10=
EXTT11=
EXTT12=
EXTT13=
EXTT14=
EXTT15=
EXTT16=
PLAYORDER=
